<?xml version="1.0" encoding="UTF-8" standalone="no"?>
<svg
   version="1.0"
   width="930pt"
   height="240pt"
   viewBox="0 0 930 240"
   preserveAspectRatio="xMidYMid"
   id="svg11"
   sodipodi:docname="vaultsync_logotype_v2.svg"
   inkscape:version="1.4.3 (0d15f75, 2025-12-25)"
   inkscape:export-filename="vaultsync_logotype_v2.webp"
   inkscape:export-xdpi="96"
   inkscape:export-ydpi="96"
   xmlns:inkscape="http://www.inkscape.org/namespaces/inkscape"
   xmlns:sodipodi="http://sodipodi.sourceforge.net/DTD/sodipodi-0.dtd"
   xmlns="http://www.w3.org/2000/svg"
   xmlns:svg="http://www.w3.org/2000/svg">
  <defs
     id="defs11" />
  <sodipodi:namedview
     id="namedview11"
     pagecolor="#ffffff"
     bordercolor="#666666"
     borderopacity="1.0"
     inkscape:showpageshadow="2"
     inkscape:pageopacity="0.0"
     inkscape:pagecheckerboard="0"
     inkscape:deskcolor="#d1d1d1"
     inkscape:document-units="pt"
     inkscape:zoom="1.118665"
     inkscape:cx="939.51271"
     inkscape:cy="125.59613"
     inkscape:window-width="2244"
     inkscape:window-height="1220"
     inkscape:window-x="1384"
     inkscape:window-y="822"
     inkscape:window-maximized="0"
     inkscape:current-layer="g11" />
  <g
     transform="matrix(0.1,0,0,-0.1,-262.5,668.11056)"
     fill="#000000"
     stroke="none"
     id="g11">
    <path
       d="m 3545,6599 c -145,-22 -277,-90 -372,-193 -89,-95 -143,-222 -143,-338 v -48 h 85 84 l 6,38 c 20,126 45,181 112,253 58,62 159,113 254,129 144,24 293,-24 399,-130 64,-64 96,-132 108,-230 l 7,-55 88,-3 87,-3 v 42 c 0,181 -125,372 -305,466 -128,67 -277,93 -410,72 z"
       id="path1"
       style="fill:#7c3aed;fill-opacity:1" />
    <path
       d="m 8690,6149 c -216,-25 -401,-143 -504,-323 -22,-37 -45,-69 -50,-71 -6,-1 -40,-8 -76,-15 -187,-34 -334,-169 -395,-362 -30,-95 -34,-248 -10,-343 46,-177 167,-297 355,-352 43,-12 118,-16 335,-20 l 280,-4 -82,41 c -55,28 -102,62 -143,103 -57,56 -130,151 -130,169 0,4 21,-5 48,-21 26,-17 88,-43 137,-60 238,-80 449,-64 508,37 17,29 18,39 8,72 -15,52 -60,87 -205,162 -196,102 -280,179 -312,285 -42,140 29,285 174,353 170,80 441,79 671,-2 45,-16 85,-27 88,-25 2,3 -5,25 -17,49 -114,225 -393,359 -680,327 z"
       id="path2"
       style="fill:#7c3aed;fill-opacity:1" />
    <path
       d="m 6600,5305 v -625 h 95 95 v 625 625 h -95 -95 z"
       id="path3"
       style="fill:#7c3aed;fill-opacity:1" />
    <path
       d="m 2700,5904 c 0,-4 98,-216 219,-473 120,-256 256,-546 301,-644 l 83,-177 356,2 355,3 69,150 c 64,139 142,309 421,908 58,125 106,230 106,232 0,3 -123,5 -274,5 h -273 l -108,-232 c -60,-128 -110,-235 -112,-237 -2,-3 -26,6 -55,20 -72,34 -213,34 -275,2 -31,-17 -43,-20 -51,-10 -9,11 -129,264 -187,395 l -28,62 h -273 c -151,0 -274,-3 -274,-6 z m 1032,-620 c 32,-32 38,-86 14,-133 -13,-25 -12,-38 13,-140 19,-79 24,-114 16,-117 -6,-3 -65,-3 -131,-2 -100,3 -118,5 -116,18 2,8 15,55 29,104 25,88 26,90 8,138 -26,74 -5,138 55,161 29,12 83,-3 112,-29 z"
       id="path4"
       style="fill:#7c3aed;fill-opacity:1" />
    <path
       d="m 7085,5761 -60,-6 -3,-112 -3,-113 h -64 -65 v -69 -68 l 31,-7 c 17,-3 47,-6 65,-6 h 34 v -266 c 0,-175 4,-280 12,-306 15,-49 74,-103 130,-119 89,-25 347,-6 335,24 -2,7 -10,38 -17,69 l -13,57 -96,-6 c -93,-6 -98,-5 -126,20 l -30,25 v 254 253 l 123,3 122,3 v 69 70 h -125 -125 v 120 120 l -32,-2 c -18,-1 -60,-4 -93,-7 z"
       id="path5"
       style="fill:#7c3aed;fill-opacity:1" />
    <path
       d="m 8904,5554 c -43,-21 -58,-57 -40,-92 15,-29 36,-43 197,-132 123,-68 199,-133 228,-193 79,-163 20,-350 -138,-440 l -56,-32 107,-3 c 85,-2 115,1 140,14 66,34 107,75 139,139 41,83 50,205 24,305 -51,196 -207,363 -399,430 -70,24 -159,26 -202,4 z"
       id="path6"
       style="fill:#7c3aed;fill-opacity:1" />
    <path
       d="m 4868,5535 c -76,-12 -197,-42 -207,-51 -1,-1 7,-33 19,-69 22,-67 23,-67 54,-61 17,3 67,12 111,20 233,44 365,-5 365,-135 0,-47 -1,-48 -32,-53 -18,-3 -98,-7 -178,-10 -214,-7 -313,-43 -370,-132 -53,-84 -48,-212 12,-280 55,-63 118,-87 235,-92 127,-5 212,17 292,78 29,23 54,40 56,38 2,-2 10,-25 18,-53 l 14,-50 h 79 c 66,0 78,3 74,15 -2,8 -7,155 -10,325 l -5,310 -28,58 c -32,64 -80,103 -162,131 -70,23 -231,29 -337,11 z m 342,-533 c 0,-90 -75,-160 -197,-182 -101,-18 -189,6 -212,57 -25,56 -6,110 50,139 47,24 103,32 237,33 l 122,1 z"
       id="path7"
       style="fill:#7c3aed;fill-opacity:1" />
    <path
       d="m 5590,5222 c 0,-368 3,-387 83,-466 70,-70 132,-90 265,-84 116,5 188,33 248,97 l 39,41 15,-63 15,-62 h 73 c 39,0 72,3 72,8 0,4 0,194 0,422 v 415 h -94 -95 l -3,-272 c -3,-260 -4,-275 -25,-315 -41,-77 -112,-113 -220,-113 -82,0 -133,25 -159,77 -17,34 -19,67 -22,331 l -3,292 h -94 -95 z"
       id="path8"
       style="fill:#7c3aed;fill-opacity:1" />
    <path
       d="m 10680,5481 c -55,-18 -108,-52 -144,-91 -21,-23 -39,-40 -40,-38 -2,1 -7,30 -12,63 l -9,60 h -70 c -66,0 -70,-1 -69,-22 0,-13 1,-192 2,-398 l 2,-375 h 84 85 l 3,268 3,267 26,38 c 70,101 199,133 288,71 13,-9 32,-35 42,-58 16,-36 19,-68 19,-282 0,-133 3,-256 6,-273 l 7,-31 h 78 79 v 278 c 0,226 -3,288 -16,332 -38,128 -122,192 -259,197 -44,1 -91,-1 -105,-6 z"
       id="path9"
       style="fill:#7c3aed;fill-opacity:1" />
    <path
       d="m 11483,5475 c -77,-21 -130,-51 -189,-106 -153,-145 -159,-415 -13,-574 117,-127 346,-163 531,-83 54,23 55,28 23,104 l -13,31 -73,-25 c -129,-43 -259,-22 -331,55 -76,80 -96,230 -45,335 49,99 132,148 252,148 34,0 85,-7 114,-16 29,-8 55,-13 58,-10 3,3 16,28 29,55 22,49 22,51 4,61 -70,37 -252,50 -347,25 z"
       id="path10"
       style="fill:#7c3aed;fill-opacity:1" />
    <path
       d="m 9478,5475 c -3,-3 21,-70 54,-148 33,-78 102,-245 155,-371 l 95,-229 -19,-41 c -28,-63 -118,-146 -200,-185 l -71,-34 22,-61 c 19,-54 25,-61 46,-58 39,4 160,67 208,107 49,42 117,136 157,214 39,78 325,793 320,801 -2,4 -38,8 -79,9 -67,2 -76,0 -86,-20 -14,-24 -102,-268 -162,-442 -22,-65 -43,-115 -46,-112 -4,4 -23,50 -43,103 -20,53 -69,181 -110,285 l -73,187 h -81 c -45,0 -84,-2 -87,-5 z"
       id="path11"
       style="fill:#7c3aed;fill-opacity:1" />
  </g>
</svg>
